PathFileType	4	(X/Y/Z)	Patient4_TMGait_0pt4_01_right_14.trc.trc
DataRate	CameraRate	NumFrames	NumMarkers	Units	OrigDataRate	OrigDataStartFrame	OrigNumFrames
77.777777777778	77.777777777778	6	33	mm	77.777777777778	18	       141
Frame#	Time	Sacral			L.Shoulder			Chest			R.Shoulder			Neck			R.ASIS			L.ASIS			R.Thigh.Superior			R.Thigh.Lateral			R.Thigh.Inferior			R.Patella			L.Thigh.Superior			L.Thigh.Lateral			L.Thigh.Inferior			L.Patella			L.Shank.Superior			L.Shank.Lateral			L.Shank.Inferior			R.Shank.Superior			R.Shank.Lateral			R.Shank.Inferior			R.Heel			R.Midfoot.Superior			R.Midfoot.Lateral			R.Toe			L.Heel			L.Midfoot.Lateral			L.Midfoot.Superior			L.Toe			L.Elbow			L.Wrist			R.Elbow			R.Wrist			
		X1	Y1	Z1	X2	Y2	Z2	X3	Y3	Z3	X4	Y4	Z4	X5	Y5	Z5	X6	Y6	Z6	X7	Y7	Z7	X8	Y8	Z8	X9	Y9	Z9	X10	Y10	Z10	X11	Y11	Z11	X12	Y12	Z12	X13	Y13	Z13	X14	Y14	Z14	X15	Y15	Z15	X16	Y16	Z16	X17	Y17	Z17	X18	Y18	Z18	X19	Y19	Z19	X20	Y20	Z20	X21	Y21	Z21	X22	Y22	Z22	X23	Y23	Z23	X24	Y24	Z24	X25	Y25	Z25	X26	Y26	Z26	X27	Y27	Z27	X28	Y28	Z28	X29	Y29	Z29	X30	Y30	Z30	X31	Y31	Z31	X32	Y32	Z32	X33	Y33	Z33	

18	18.268571428571	825.445870957771	1015.341338568401	452.587899150630	1033.886534526318	1425.359218119298	252.916104694025	1128.882880877289	1362.225607877490	419.343850637573	1047.076139800864	1449.749654106285	587.455745591240	1014.552012338997	1495.916245367733	416.837014550722	1052.573427518075	945.548072227646	570.297582650363	1038.809752901035	961.401648859024	296.133690108677	1121.661128673921	772.404001889659	538.902385096529	1084.012331651993	651.641645386187	616.686267015567	1166.686768320273	611.461616253041	532.038120696992	1197.717993452793	518.356705715880	551.942765716577	1057.652308641734	737.275380469256	326.657765981236	946.468662052214	635.580157852042	268.394935335308	1014.843486327784	546.939041303814	332.235897394840	1003.352151993495	481.517025100055	344.739164144946	973.623523086076	413.416472029538	337.219479906120	876.324587156457	305.726938705980	285.481177831974	914.154459665342	192.096310565537	361.586562582505	1159.320251346152	430.880638730355	563.222049015828	1082.124597008432	335.640452058195	631.919286796027	1122.020756294029	234.635921173348	578.874371830189	984.816650707976	69.225809104641	560.907319278141	1156.369259013946	119.115982675468	590.290786942543	1070.032190427419	59.291280524134	633.261314902522	1275.625245668695	68.285751863951	619.127222744997	776.168891150581	41.079539086550	404.707003170888	851.822238532543	35.656822191870	326.331972622455	935.685677072956	95.566312370704	353.630673451064	1064.203947240954	40.383429318468	330.028714645448	1072.136161065308	1080.200451221889	129.829535248824	1279.926050669072	919.203095387038	137.441102471695	904.274908926741	1141.618148448775	713.595778611117	890.861944249016	879.133141277758	721.437588978838	
19	18.281428571429	825.955937766140	1014.714704582726	454.201930505764	1033.593664365028	1424.750647518187	254.711994498646	1129.386475042263	1361.387674681670	420.556182897728	1048.448665888629	1448.840348236778	589.142570612372	1014.798227653369	1495.107237521016	418.833247883532	1053.338861699647	943.926679457666	571.012040644658	1038.635735828920	961.053294959135	296.869213348518	1120.018659576989	768.846658744542	539.650905185624	1080.169809077729	648.594659962558	617.256064933196	1162.209568024922	607.868672360606	532.266565589894	1192.680016798972	516.596459664647	551.082999847862	1055.350884412757	736.419388601551	327.018638973263	943.562838719583	635.587861113014	268.796245557513	1011.205896539095	546.397502405737	332.290915888589	999.273111191583	481.084777872145	344.750238882097	969.323061910653	413.176529847562	337.241747982178	871.501879245821	305.847800772820	285.535043302911	909.234562345253	192.012933094229	361.530200350512	1157.496249104584	428.698922417150	562.748324227793	1084.479958464131	330.320633472451	631.840081177364	1127.841233020512	231.009299130866	578.001325043369	996.516913574501	61.223229813249	560.573201897216	1166.888854024331	116.125484834017	588.698937619466	1082.566352480017	53.809909956330	632.310251287660	1287.965406554416	68.729207840898	616.621556653830	770.969832606389	41.053508881678	404.652596501408	846.615366051462	35.619296382983	326.304114123198	930.468490021999	95.560389927556	353.585053067968	1058.963967897570	40.377244376221	330.031956453064	1072.170945772142	1079.490303472388	132.005888933354	1280.833255752621	919.737749913132	141.717712492133	907.043330093829	1140.362273805956	716.195850696273	894.886198903322	877.909208363240	723.968691990814	
20	18.294285714286	826.719155493452	1013.893700225736	456.037125730921	1033.068879405730	1424.083479624975	256.685826618337	1129.829652258448	1360.578438789676	421.888174595948	1049.785932383537	1447.868085771682	591.015419123092	1014.937088915851	1494.225249659318	421.007638874443	1054.387893806783	942.194249361053	571.812648856653	1038.664268472463	960.662228877172	297.753982969638	1118.755135154381	765.161814753533	540.485524126308	1076.535164892985	645.465183513762	617.816756669381	1157.962776240375	604.248476255519	532.480938816045	1187.565898909093	514.595675832681	550.244909566197	1053.195157941352	735.522996181991	327.556486353552	940.812176686352	635.584174724341	269.334211038852	1007.684418072601	545.838216550238	332.487457329716	995.313800710968	480.578260933814	344.886486954485	965.094421907712	412.887858011488	337.374036969341	866.684291855332	305.971575130158	285.693697577713	904.313448186932	191.893942334447	361.553933514993	1155.301959510466	426.304968206599	562.315821636124	1085.870247164680	325.301174869658	631.537175063352	1132.257946333160	227.562748418664	576.989594501230	1005.972360756162	54.623876890610	559.845297150554	1175.439475665630	113.207327403982	586.976674235828	1092.638979000791	49.085127951547	631.024396624662	1297.799067456788	68.277892507047	613.894343187317	765.752282593893	40.988309029269	404.611889101969	841.396569742865	35.567812872462	326.291335142763	925.226259776511	95.557667451023	353.563325955054	1053.711792109880	40.376549892716	330.037346242584	1071.798926565110	1078.661503492911	134.315830366565	1281.010242074906	919.716170791007	145.899633436264	910.330204790494	1138.782261352567	719.095407881695	900.303210094638	876.357153744961	726.980752796030	
21	18.307142857143	827.721181347974	1012.895925145821	458.093768288491	1032.312636669712	1423.376674570005	258.838454011405	1130.206426490689	1359.826011823046	423.348155935038	1051.065355274287	1446.851753217027	593.079763132788	1014.974960586231	1493.293706723425	423.360969851442	1055.699207083716	940.395043367730	572.704334841872	1038.878197260084	960.230837790320	298.805237961506	1117.969919582102	761.504256421692	541.384046948691	1073.278815182090	642.378208340223	618.330905329434	1154.159715519028	600.755658336726	532.680416309995	1182.603477632606	512.444948392979	549.456262827824	1051.292909392957	734.594417353334	328.267340790716	938.270559722370	635.561812213962	270.026921311509	1004.360404569034	545.259325827355	332.843477273214	991.572326404706	479.979823198751	345.162326898457	961.015006868806	412.535116347497	337.633378706935	861.921516790288	306.108162075971	285.981134857478	899.417052027962	191.741471568997	361.667521138027	1152.883962408981	423.779597981062	561.932938816710	1086.338756850851	320.692463334567	631.064972516893	1135.209339448512	224.324913628080	575.900101398123	1012.911277034910	49.465145240315	558.829248111818	1181.829867159326	110.394999626209	585.255303707240	1100.001669718607	45.165675795039	629.541091661068	1304.960637736741	66.912193640771	611.126115712283	760.517852721358	40.899522916810	404.588877047659	836.168753726263	35.508368343166	326.298724352891	919.967823266709	95.562284823420	353.567707608237	1048.453446558151	40.374099629805	330.042927254404	1070.991717028822	1077.715070830896	136.776158391789	1280.441350767626	919.128855828814	149.921152077263	914.122009098381	1136.901452051058	722.261430529934	907.041293592584	874.515135108298	730.409265024519	
22	18.320000000000	828.927615695256	1011.764684652433	460.359997465612	1031.345267699156	1422.663877431465	261.167222921543	1130.519236767514	1359.162879338369	424.943203547941	1052.272042650342	1445.819895241083	595.335801892990	1014.929777502486	1492.350655193596	425.887809600615	1057.233930706696	938.590685826613	573.692418635954	1039.242299697318	959.773104016729	300.033539468466	1117.733494513599	758.038453500439	542.326172037577	1070.543837089293	639.467713295379	618.776101737863	1150.985588350174	597.537051663071	532.884249585697	1178.011247961946	510.246633602844	548.748756996230	1049.742202091715	733.656813719718	329.132233356507	936.007275797417	635.512968027394	270.890044064423	1001.350313214821	544.663790655741	333.367173230870	988.188470833690	479.272683012798	345.580688466908	957.194496884816	412.103104858347	338.030162303875	857.289560182588	306.275065325954	286.418287682958	894.588052112862	191.563352588416	361.874801064218	1150.396311299189	421.222284476592	561.606173682492	1085.998893127372	316.599424556330	630.508710212064	1136.712637409920	221.334397199877	574.803374943381	1017.220744474717	45.698641028315	557.667016946243	1185.975313004901	107.750046273826	583.665409081391	1104.574942071229	42.066042025579	628.018276610332	1309.428328567542	64.738882535358	608.490401888799	755.271424939617	40.821021868558	404.586585461786	830.937973419208	35.454723709511	326.330449744590	914.710602207862	95.580088279559	353.597156118721	1043.198038599993	40.361111625419	330.045259337573	1069.724197168718	1076.665203353892	139.409202121998	1279.101733915897	917.972831467646	153.721838613515	918.414063079587	1134.756513279446	725.656624261054	915.027841074623	872.439390881273	734.182958886424	
23	18.332857142857	830.284480226381	1010.568868853571	462.811498159757	1030.207660510212	1421.993606424340	263.664649544509	1130.778754632197	1358.623777363091	426.677456303570	1053.401595331948	1444.811021821419	597.776429426141	1014.829248925859	1491.447574515443	428.576653934827	1058.938273562456	936.857641367840	574.783416169745	1039.706448228121	959.315954549852	301.440752377363	1118.074337858779	754.924075822409	543.296604917875	1068.431984002856	636.865924287284	619.152471331333	1148.571170935970	594.717902375599	533.129100498856	1173.971436960337	508.109088880736	548.157158434344	1048.618576589833	732.750048389384	330.122731148945	934.107419811534	635.430268532323	271.933638039095	998.803541274389	544.060275990870	334.054510948912	985.340387842245	478.442872165068	346.128131045850	953.772148832358	411.578643852831	338.564231092074	852.890723785873	306.498470575438	287.018784978374	889.886502544601	191.374507026954	362.171531830146	1147.982122438152	418.743835881078	561.342854805139	1085.018984910533	313.111649283316	629.972275210740	1136.866146534888	218.638434150584	573.771643533335	1018.968365206398	43.193433866218	556.509625930399	1187.914631285503	105.352450631148	582.319730878438	1106.463752951249	39.760168401148	626.609359684641	1311.333847631355	61.978598873329	606.140710482634	750.022892442214	40.809206090872	404.606130061145	825.714259216121	35.430464201559	326.388755487342	909.482533914813	95.618693886582	353.645935739538	1037.957589807066	40.328277115802	330.039726213722	1067.977161377703	1075.542503346504	142.240385367388	1276.956254766849	916.253172979955	157.249274423484	923.206079109931	1132.399627664158	729.239388282785	924.192056526176	870.205347365889	738.228965079841	
